{"title":"Lego - The Adventures of Clutch Powers (2010) DVDRip x264 AAC pe","uid":11160848,"size":683375623,"categoryP":"video","categoryS":"movies","magnet":"?xt=urn:btih:c8793faeb0c8bdbd9a80045fde4363363d417955&amp;dn=Lego+-+The+Adventures+of+Clutch+Powers+%282010%29+DVDRip+x264+AAC+pe&amp;tr=udp%3A%2F%2Ftracker.openbittorrent.com%3A80&amp;tr=udp%3A%2F%2Fopen.demonii.com%3A1337&amp;tr=udp%3A%2F%2Ftracker.coppersurfer.tk%3A6969&amp;tr=udp%3A%2F%2Fexodus.desync.com%3A6969","seeders":5,"leechers":1,"uploader":"peaSoup","files":-1,"time":1412537854,"description":"For the first time ever, see the world of LEGO come to life in the all-new feature-length DVD movie adventure with Clutch Powers, the best builder and explorer in the LEGO universe.                                                                      &lt;a href=&quot; http://i.imgur.com/SarCkAx.jpg&quot; rel=&quot;nofollow&quot; target=&quot;_NEW&quot;&gt; http://i.imgur.com/SarCkAx.jpg&lt;/a&gt;                                                      &lt;a href=&quot; http://i.imgur.com/bNOPjOe.jpg&quot; rel=&quot;nofollow&quot; target=&quot;_NEW&quot;&gt; http://i.imgur.com/bNOPjOe.jpg&lt;/a&gt;                                                      &lt;a href=&quot; http://i.imgur.com/WsHYv5a.jpg&quot; rel=&quot;nofollow&quot; target=&quot;_NEW&quot;&gt; http://i.imgur.com/WsHYv5a.jpg&lt;/a&gt;                                                      &lt;a href=&quot; http://i.imgur.com/oOkpEXU.jpg&quot; rel=&quot;nofollow&quot; target=&quot;_NEW&quot;&gt; http://i.imgur.com/oOkpEXU.jpg&lt;/a&gt;                                                      &lt;a href=&quot; http://i.imgur.com/Va8igQU.jpg&quot; rel=&quot;nofollow&quot; target=&quot;_NEW&quot;&gt; http://i.imgur.com/Va8igQU.jpg&lt;/a&gt;                                                       \nFormat                                   : MPEG-4\nFormat profile                           : Base Media / Version 2\nCodec ID                                 : mp42\nFile size                                : 652 MiB\nDuration                                 : 1h 18mn\nOverall bit rate mode                    : Variable\nOverall bit rate                         : 1 164 Kbps\nEncoded date                             : UTC 2014-10-05 17:08:58\nTagged date                              : UTC 2014-10-05 17:18:22\nWriting application                      : HandBrake 0.9.9 2013052900\n\nVideo\nID                                       : 1\nFormat                                   : AVC\nFormat/Info                              : Advanced Video Codec\nFormat profile                           : &lt;a class=&quot;__cf_email__&quot; href=&quot;/cdn-cgi/l/email-protection&quot; data-cfemail=&quot;094468606749453d2739&quot;&gt;[email&amp;#160;protected]&lt;/a&gt;&lt;script cf-hash='f9e31' type=&quot;text/javascript&quot;&gt;\n/* &lt;![CDATA[ */!function(){try{var t=&quot;currentScript&quot;in document?document.currentScript:function(){for(var t=document.getElementsByTagName(&quot;script&quot;),e=t.length;e--;)if(t[e].getAttribute(&quot;cf-hash&quot;))return t[e]}();if(t&amp;&amp;t.previousSibling){var e,r,n,i,c=t.previousSibling,a=c.getAttribute(&quot;data-cfemail&quot;);if(a){for(e=&quot;&quot;,r=parseInt(a.substr(0,2),16),n=2;a.length-n;n+=2)i=parseInt(a.substr(n,2),16)^r,e+=String.fromCharCode(i);e=document.createTextNode(e),c.parentNode.replaceChild(e,c)}}}catch(u){}}();/* ]]&gt; */&lt;/script&gt;\nFormat settings, CABAC                   : Yes\nFormat settings, ReFrames                : 4 frames\nCodec ID                                 : avc1\nCodec ID/Info                            : Advanced Video Coding\nDuration                                 : 1h 18mn\nBit rate                                 : 1 000 Kbps\nWidth                                    : 720 pixels\nHeight                                   : 576 pixels\nDisplay aspect ratio                     : 16:9\nFrame rate mode                          : Constant\nFrame rate                               : 25.000 fps\nStandard                                 : PAL\nColor space                              : YUV\nChroma subsampling                       : 4:2:0\nBit depth                                : 8 bits\nScan type                                : Progressive\nBits/(Pixel*Frame)                       : 0.096\nStream size                              : 560 MiB (86%)\nWriting library                          : x264 core 130 r2273 b3065e6\n\nEncoded date                             : UTC 2014-10-05 17:08:58\nTagged date                              : UTC 2014-10-05 17:18:22\nColor primaries                          : BT.601 PAL\nTransfer characteristics                 : BT.709\nMatrix coefficients                      : BT.601\n\nAudio\nID                                       : 2\nFormat                                   : AAC\nFormat/Info                              : Advanced Audio Codec\nFormat profile                           : LC\nCodec ID                                 : 40\nDuration                                 : 1h 18mn\nBit rate mode                            : Variable\nBit rate                                 : 160 Kbps\nMaximum bit rate                         : 205 Kbps\nChannel(s)                               : 2 channels\nChannel positions                        : Front: L R\nSampling rate                            : 48.0 KHz\nCompression mode                         : Lossy\nStream size                              : 89.6 MiB (14%)\nLanguage                                 : English\nEncoded date                             : UTC 2014-10-05 17:08:58\nTagged date                              : UTC 2014-10-05 17:18:22","torrent":{"xt":"urn:btih:c8793faeb0c8bdbd9a80045fde4363363d417955","amp;dn":"Lego+-+The+Adventures+of+Clutch+Powers+%282010%29+DVDRip+x264+AAC+pe","amp;tr":["udp%3A%2F%2Ftracker.openbittorrent.com%3A80","udp%3A%2F%2Fopen.demonii.com%3A1337","udp%3A%2F%2Ftracker.coppersurfer.tk%3A6969","udp%3A%2F%2Fexodus.desync.com%3A6969"],"infoHash":"c8793faeb0c8bdbd9a80045fde4363363d417955","infoHashBuffer":{"type":"Buffer","data":[200,121,63,174,176,200,189,189,154,128,4,95,222,67,99,54,61,65,121,85]},"announce":[],"urlList":[]}}